<svg id="svg" version="1.1" xmlns="http://www.w3.org/2000/svg" xmlns:xlink="http://www.w3.org/1999/xlink" width="400" height="400" viewBox="0, 0, 400,400"><g id="svgg"><path id="path0" d="M31.380 41.783 C 30.533 42.631,29.970 42.783,27.299 42.883 C 24.484 42.989,24.189 43.078,24.078 43.853 C 23.972 44.595,23.636 44.730,21.507 44.884 C 19.553 45.026,18.940 45.237,18.480 45.931 C 18.162 46.409,17.495 46.800,16.997 46.800 C 16.484 46.800,15.821 47.214,15.466 47.756 C 15.101 48.312,14.205 48.861,13.320 49.069 C 12.194 49.334,11.767 49.657,11.672 50.313 C 11.580 50.951,11.271 51.200,10.572 51.200 C 9.802 51.200,9.600 51.408,9.600 52.200 C 9.600 52.998,9.399 53.200,8.608 53.200 C 7.889 53.200,7.548 53.469,7.370 54.177 C 7.221 54.772,6.787 55.202,6.262 55.277 C 5.662 55.363,5.362 55.728,5.275 56.481 C 5.204 57.102,4.839 57.661,4.418 57.794 C 3.671 58.031,3.215 59.113,3.205 60.672 C 3.202 61.270,2.917 61.585,2.300 61.672 C 1.516 61.784,1.384 62.071,1.279 63.900 C 1.192 65.411,0.996 66.000,0.579 66.000 C 0.084 66.000,0.000 68.225,0.000 81.400 C 0.000 94.822,0.077 96.800,0.600 96.800 C 1.079 96.800,1.200 97.395,1.200 99.757 C 1.200 102.558,1.251 102.726,2.177 102.959 C 2.993 103.163,3.174 103.484,3.277 104.902 C 3.372 106.213,3.605 106.690,4.300 106.995 C 4.840 107.232,5.200 107.741,5.200 108.268 C 5.200 108.929,5.472 109.178,6.300 109.273 C 7.162 109.373,7.375 109.584,7.283 110.252 C 7.212 110.767,7.617 111.558,8.306 112.252 C 8.933 112.883,9.567 113.719,9.714 114.109 C 9.861 114.499,10.301 114.938,10.691 115.085 C 11.081 115.231,11.877 115.857,12.460 116.475 C 13.094 117.148,13.939 117.600,14.560 117.600 C 15.403 117.600,15.600 117.790,15.600 118.600 C 15.600 119.439,15.789 119.600,16.772 119.600 C 17.683 119.600,17.973 119.800,18.072 120.500 C 18.175 121.225,18.570 121.472,20.100 121.767 C 21.491 122.036,22.000 122.319,22.000 122.824 C 22.000 123.641,22.783 124.000,24.569 124.000 C 25.570 124.000,25.977 124.231,26.327 125.000 C 26.732 125.889,27.026 126.000,28.962 126.000 C 30.811 126.000,31.261 126.152,31.929 127.000 C 32.644 127.910,32.989 128.000,35.758 128.000 C 38.163 128.000,38.800 128.123,38.800 128.586 C 38.800 129.654,40.550 130.141,45.000 130.311 C 48.061 130.427,49.531 130.644,49.831 131.022 C 50.543 131.918,53.519 132.380,58.651 132.390 C 63.195 132.399,63.539 132.456,64.085 133.277 C 64.563 133.997,65.142 134.184,67.332 134.323 L 69.997 134.493 69.859 161.433 L 69.722 188.373 68.815 189.107 C 67.953 189.805,67.900 190.168,67.740 196.421 C 67.581 202.641,67.523 203.037,66.686 203.677 C 65.905 204.273,65.783 204.797,65.657 208.075 C 65.530 211.361,65.401 211.908,64.557 212.753 C 63.711 213.598,63.600 214.072,63.600 216.827 C 63.600 219.755,63.545 219.952,62.700 220.072 C 61.868 220.190,61.791 220.432,61.684 223.274 C 61.577 226.099,61.496 226.359,60.684 226.474 C 59.904 226.585,59.764 226.929,59.493 229.400 C 59.257 231.551,58.990 232.348,58.341 232.841 C 57.552 233.439,57.337 234.482,57.216 238.300 C 57.207 238.575,56.926 238.800,56.590 238.800 C 55.764 238.800,55.200 240.438,55.200 242.839 C 55.200 244.365,55.038 244.885,54.500 245.083 C 53.393 245.492,53.213 246.023,53.206 248.900 C 53.201 251.050,53.076 251.600,52.590 251.600 C 51.765 251.600,51.200 253.237,51.200 255.626 L 51.200 257.600 53.016 257.600 C 54.122 257.600,55.256 257.312,55.916 256.863 C 56.512 256.457,57.720 255.674,58.600 255.123 C 60.597 253.873,64.332 251.380,66.576 249.800 C 67.513 249.140,68.802 248.248,69.440 247.817 C 71.580 246.373,78.911 239.977,80.159 238.466 C 80.880 237.593,87.706 230.963,88.935 229.943 C 89.559 229.424,90.729 228.404,91.535 227.675 C 93.752 225.669,94.078 225.416,95.700 224.438 C 96.525 223.941,97.200 223.382,97.200 223.194 C 97.200 223.007,97.605 222.733,98.100 222.584 C 98.595 222.436,99.270 221.992,99.600 221.598 C 99.930 221.204,101.550 220.190,103.200 219.347 C 104.850 218.503,106.290 217.695,106.400 217.552 C 106.723 217.131,113.348 214.000,113.914 214.000 C 114.199 214.000,115.100 213.661,115.916 213.246 C 116.732 212.832,118.480 212.271,119.800 212.001 C 121.120 211.730,122.656 211.275,123.213 210.989 C 123.771 210.703,125.751 210.251,127.613 209.983 C 129.476 209.716,131.321 209.331,131.714 209.127 C 132.106 208.924,134.626 208.491,137.314 208.165 C 140.001 207.840,143.010 207.312,144.000 206.992 C 144.990 206.672,147.510 206.154,149.600 205.840 C 151.690 205.527,154.210 205.000,155.200 204.669 C 156.190 204.338,158.080 203.799,159.400 203.471 C 163.511 202.449,169.407 200.176,171.600 198.769 C 171.930 198.557,172.819 198.101,173.575 197.755 C 174.331 197.410,175.518 196.693,176.212 196.163 C 176.907 195.634,177.618 195.200,177.792 195.200 C 177.966 195.200,178.579 194.748,179.154 194.196 C 181.555 191.889,181.902 191.600,182.259 191.600 C 182.466 191.600,184.157 189.961,186.017 187.957 C 187.878 185.954,189.895 183.788,190.500 183.144 C 191.105 182.499,191.600 181.752,191.600 181.482 C 191.600 181.213,191.960 180.768,192.400 180.493 C 192.840 180.218,193.200 179.799,193.200 179.562 C 193.200 179.139,195.135 176.175,196.439 174.600 C 196.803 174.160,197.313 173.139,197.571 172.332 C 197.830 171.525,198.293 170.655,198.600 170.400 C 198.907 170.145,199.371 169.275,199.630 168.468 C 199.889 167.661,200.325 166.730,200.599 166.400 C 201.090 165.809,202.323 162.723,203.475 159.200 C 203.799 158.210,204.406 156.590,204.825 155.600 C 205.243 154.610,205.864 152.552,206.204 151.028 C 206.544 149.503,206.984 148.060,207.182 147.821 C 207.381 147.582,207.822 145.387,208.163 142.943 C 208.504 140.498,208.968 138.009,209.195 137.412 C 210.528 133.907,210.509 106.843,209.171 103.325 C 208.938 102.710,208.414 100.406,208.007 98.204 C 207.212 93.897,206.092 90.233,204.561 86.925 C 204.032 85.784,203.600 84.693,203.600 84.501 C 203.600 84.183,201.524 80.017,199.972 77.218 C 199.626 76.596,198.861 75.513,198.272 74.812 C 197.682 74.112,197.200 73.365,197.200 73.152 C 197.200 72.939,196.750 72.280,196.200 71.687 C 195.650 71.093,195.200 70.393,195.200 70.131 C 195.200 69.869,194.840 69.540,194.400 69.400 C 193.960 69.260,193.600 68.986,193.600 68.789 C 193.600 68.380,192.099 66.669,189.836 64.499 C 184.567 59.448,183.580 58.533,182.736 57.914 C 182.221 57.536,181.036 56.636,180.103 55.914 C 179.170 55.191,177.881 54.195,177.240 53.700 C 176.598 53.205,175.905 52.800,175.699 52.800 C 175.493 52.800,174.985 52.425,174.570 51.967 C 174.155 51.509,173.227 50.888,172.506 50.587 C 171.785 50.285,170.820 49.401,170.359 48.620 C 169.898 47.839,169.359 47.200,169.160 47.200 C 168.608 47.200,168.732 45.294,169.300 45.065 C 170.029 44.771,164.722 44.756,163.262 45.048 C 162.548 45.190,161.922 45.614,161.785 46.048 C 161.616 46.580,161.167 46.800,160.253 46.800 C 158.832 46.800,158.000 47.400,158.000 48.424 C 158.000 49.582,152.022 51.945,147.400 52.614 C 146.300 52.774,144.950 53.124,144.400 53.394 C 143.850 53.663,142.500 54.103,141.400 54.371 C 140.300 54.640,138.860 55.113,138.200 55.422 C 137.540 55.732,136.010 56.332,134.800 56.756 C 130.332 58.321,127.589 59.451,127.121 59.919 C 126.856 60.184,126.479 60.400,126.282 60.400 C 125.913 60.400,120.643 63.275,117.800 65.028 C 114.699 66.939,112.913 67.300,112.000 66.200 C 111.622 65.745,110.598 65.600,107.760 65.600 C 104.210 65.600,103.985 65.549,103.363 64.600 C 102.814 63.762,102.395 63.600,100.782 63.600 C 99.089 63.600,98.840 63.491,98.728 62.700 C 98.619 61.934,98.321 61.782,96.725 61.679 C 95.144 61.577,94.831 61.421,94.725 60.679 C 94.643 60.100,94.270 59.753,93.633 59.663 C 93.100 59.588,92.142 59.003,91.502 58.363 C 90.857 57.719,89.906 57.200,89.369 57.200 C 88.685 57.200,88.400 56.977,88.400 56.443 C 88.400 55.557,87.653 55.200,85.795 55.200 C 84.711 55.200,84.431 55.029,84.328 54.300 C 84.237 53.662,83.887 53.364,83.125 53.276 C 82.372 53.189,82.012 52.889,81.925 52.276 C 81.819 51.536,81.505 51.381,79.900 51.278 C 78.207 51.169,78.000 51.054,78.000 50.216 C 78.000 49.390,77.755 49.241,76.000 49.000 C 74.443 48.786,74.000 48.566,74.000 48.005 C 74.000 47.131,73.230 46.800,71.195 46.800 C 69.903 46.800,69.635 46.655,69.528 45.900 C 69.416 45.116,69.129 44.984,67.300 44.879 C 65.815 44.794,65.200 44.593,65.200 44.193 C 65.200 43.223,63.769 42.800,60.491 42.800 C 57.506 42.800,57.303 42.744,56.873 41.800 L 56.417 40.800 44.390 40.800 L 32.364 40.800 31.380 41.783 M150.000 144.872 C 151.210 145.508,152.380 146.262,152.600 146.548 C 152.820 146.835,153.405 147.285,153.900 147.549 C 154.395 147.812,154.800 148.285,154.800 148.600 C 154.800 148.915,155.148 149.358,155.574 149.586 C 156.000 149.814,156.576 150.630,156.855 151.400 C 157.133 152.170,157.498 152.800,157.665 152.800 C 158.389 152.800,160.112 161.595,159.895 164.179 C 159.415 169.882,157.632 175.603,155.508 178.250 C 152.331 182.210,150.630 183.615,146.830 185.419 C 141.260 188.063,131.483 183.795,128.919 177.600 C 128.600 176.830,127.948 175.390,127.470 174.400 C 126.014 171.386,126.164 160.229,127.700 157.307 C 128.305 156.156,128.800 155.010,128.800 154.759 C 128.800 153.571,132.391 149.007,135.200 146.625 C 139.135 143.287,145.540 142.529,150.000 144.872 M260.400 144.745 C 258.602 145.274,255.415 146.888,254.706 147.629 C 254.325 148.027,253.785 148.499,253.506 148.677 C 253.228 148.855,252.691 149.540,252.313 150.200 C 247.804 158.074,247.676 165.596,251.909 173.956 C 252.931 175.974,257.105 180.800,257.830 180.800 C 258.010 180.800,258.871 181.295,259.744 181.900 C 263.694 184.638,271.485 183.115,274.931 178.931 C 279.182 173.769,280.550 162.808,277.624 157.350 C 277.171 156.504,276.800 155.623,276.800 155.392 C 276.800 150.800,265.268 143.313,260.400 144.745 M131.400 266.281 C 125.012 267.141,122.342 267.708,120.600 268.577 C 119.500 269.126,118.399 269.581,118.154 269.587 C 116.119 269.645,112.780 274.742,112.743 277.848 C 112.710 280.636,116.115 284.800,118.429 284.800 C 119.232 284.800,126.132 287.673,127.168 288.440 C 128.446 289.385,130.162 288.980,130.590 287.632 C 132.848 280.518,145.298 277.725,152.777 282.654 C 159.945 287.378,162.641 292.081,162.495 299.600 C 162.369 306.089,162.975 308.317,164.400 306.600 C 164.674 306.270,165.101 306.000,165.349 306.000 C 168.997 306.000,171.909 290.600,169.300 285.104 C 168.805 284.062,168.400 282.962,168.400 282.659 C 168.400 282.357,167.866 281.410,167.214 280.555 C 164.021 276.371,163.381 275.600,163.099 275.600 C 162.932 275.600,162.403 275.150,161.925 274.600 C 161.447 274.050,160.844 273.600,160.586 273.600 C 160.328 273.600,159.669 273.185,159.122 272.678 C 157.921 271.565,154.465 269.856,152.000 269.156 C 151.010 268.875,149.821 268.406,149.357 268.114 C 147.662 267.046,135.185 265.772,131.400 266.281 M251.454 266.804 C 248.403 267.225,245.523 267.811,245.054 268.107 C 244.584 268.403,243.390 268.872,242.400 269.149 C 240.381 269.714,236.422 271.568,235.804 272.239 C 235.582 272.480,234.763 273.056,233.984 273.520 C 226.323 278.075,222.177 289.982,224.973 299.400 C 225.665 301.730,227.826 305.600,228.437 305.600 C 228.603 305.600,229.282 306.057,229.946 306.616 C 232.968 309.158,238.621 308.769,238.184 306.048 C 237.668 302.833,237.104 300.485,236.319 298.287 C 230.993 283.373,255.446 272.146,267.197 284.109 C 270.319 287.287,269.551 287.162,274.600 285.312 C 279.196 283.629,282.935 279.678,282.155 277.328 C 280.911 273.578,277.910 270.014,275.299 269.186 C 274.475 268.925,273.395 268.456,272.899 268.145 C 270.236 266.474,258.956 265.769,251.454 266.804 " stroke="none" fill="#2d2d2d" fill-rule="evenodd"></path><path id="path1" d="M264.700 10.032 C 264.315 10.256,264.000 10.691,264.000 10.999 C 264.000 11.392,263.374 11.594,261.900 11.679 C 260.089 11.783,259.783 11.921,259.675 12.676 C 259.588 13.289,259.228 13.589,258.475 13.676 C 257.713 13.764,257.363 14.062,257.272 14.700 C 257.180 15.351,256.876 15.600,256.172 15.600 C 255.409 15.600,255.200 15.809,255.200 16.572 C 255.200 17.276,254.951 17.580,254.300 17.672 C 253.656 17.764,253.364 18.112,253.273 18.900 C 253.174 19.764,252.938 20.000,252.173 20.000 C 251.409 20.000,251.200 20.209,251.200 20.972 C 251.200 21.675,250.951 21.980,250.302 22.072 C 249.577 22.175,249.339 22.564,249.059 24.100 C 248.799 25.528,248.536 26.000,248.000 26.000 C 247.128 26.000,246.800 26.774,246.800 28.833 C 246.800 30.238,246.697 30.400,245.800 30.400 C 244.869 30.400,244.800 30.535,244.800 32.372 C 244.800 34.113,244.694 34.359,243.900 34.472 C 243.116 34.584,242.984 34.871,242.879 36.700 C 242.768 38.628,242.678 38.800,241.779 38.800 C 240.873 38.800,240.800 38.946,240.800 40.772 C 240.800 42.501,240.691 42.760,239.916 42.872 C 237.175 43.269,238.534 48.826,241.562 49.601 C 242.573 49.860,244.390 50.405,245.600 50.814 C 246.810 51.222,248.608 51.679,249.595 51.829 C 250.582 51.979,252.112 52.367,252.995 52.690 C 253.878 53.013,255.679 53.538,256.998 53.857 C 258.317 54.176,259.757 54.669,260.198 54.953 C 260.639 55.236,261.900 55.690,263.000 55.960 C 264.100 56.231,265.360 56.683,265.800 56.965 C 266.240 57.248,267.320 57.698,268.200 57.966 C 269.939 58.496,271.586 59.228,278.000 62.320 C 280.534 63.542,283.033 64.450,284.300 64.610 L 286.400 64.875 286.400 58.838 C 286.400 53.802,286.497 52.800,286.986 52.800 C 288.228 52.800,288.400 51.253,288.400 40.096 L 288.400 28.939 287.415 28.014 C 286.538 27.190,286.417 26.708,286.315 23.644 C 286.207 20.417,286.143 20.192,285.300 20.072 C 284.544 19.965,284.400 19.697,284.400 18.401 C 284.400 16.951,283.618 15.600,282.779 15.600 C 282.579 15.600,282.302 15.150,282.164 14.600 C 281.984 13.882,281.643 13.600,280.957 13.600 C 280.383 13.600,280.000 13.365,280.000 13.014 C 280.000 12.169,278.705 11.600,276.784 11.600 C 275.480 11.600,274.943 11.381,274.329 10.600 C 273.471 9.509,266.321 9.088,264.700 10.032 M120.480 12.080 C 120.216 12.344,120.000 12.794,120.000 13.080 C 120.000 13.384,119.530 13.600,118.866 13.600 C 117.767 13.600,115.600 15.449,115.600 16.387 C 115.600 16.604,115.150 17.076,114.600 17.437 C 114.010 17.823,113.600 18.472,113.600 19.018 C 113.600 19.674,113.337 19.982,112.700 20.072 C 111.867 20.190,111.791 20.431,111.683 23.300 C 111.579 26.061,111.481 26.400,110.791 26.400 C 108.748 26.400,108.627 56.737,110.663 58.623 C 111.498 59.397,111.600 59.847,111.600 62.746 L 111.600 66.000 112.996 66.000 C 113.961 66.000,115.636 65.290,118.424 63.700 C 124.004 60.517,128.038 58.402,128.560 58.387 C 128.802 58.381,130.075 57.841,131.390 57.187 C 132.704 56.534,134.018 56.000,134.310 56.000 C 134.601 56.000,135.376 55.723,136.032 55.384 C 137.205 54.777,142.089 53.250,146.400 52.143 C 147.610 51.833,149.770 51.240,151.200 50.827 C 152.630 50.414,154.565 49.872,155.500 49.622 C 156.899 49.248,157.200 48.999,157.200 48.212 C 157.200 47.525,157.453 47.220,158.100 47.128 C 159.460 46.935,159.556 45.304,158.226 44.971 C 157.300 44.738,157.200 44.523,157.200 42.757 C 157.200 40.947,157.126 40.800,156.221 40.800 C 155.322 40.800,155.232 40.628,155.121 38.700 C 155.016 36.871,154.884 36.584,154.100 36.472 C 153.325 36.362,153.200 36.104,153.200 34.618 C 153.200 33.218,153.011 32.768,152.200 32.237 C 151.567 31.822,151.200 31.208,151.200 30.564 C 151.200 29.124,150.502 28.000,149.608 28.000 C 148.980 28.000,148.822 27.661,148.722 26.100 C 148.618 24.479,148.468 24.181,147.700 24.072 C 147.049 23.980,146.800 23.676,146.800 22.972 C 146.800 22.216,146.589 22.000,145.852 22.000 C 145.076 22.000,144.863 21.742,144.673 20.574 C 144.409 18.945,142.269 16.642,139.900 15.437 C 139.075 15.017,138.400 14.432,138.400 14.137 C 138.400 13.829,137.968 13.600,137.387 13.600 C 136.788 13.600,136.269 13.314,136.117 12.900 C 135.975 12.515,135.665 12.068,135.429 11.906 C 134.668 11.385,121.016 11.544,120.480 12.080 M251.503 279.993 C 241.017 281.873,234.260 290.148,236.973 297.787 C 238.952 303.360,239.773 307.998,238.880 308.551 C 238.704 308.660,238.515 309.506,238.460 310.432 C 238.367 312.016,237.699 313.755,236.657 315.128 C 235.729 316.351,231.365 320.640,230.267 321.408 C 228.878 322.379,225.685 324.257,224.600 324.739 C 221.600 326.074,219.049 326.956,216.800 327.436 C 215.370 327.741,213.120 328.305,211.800 328.690 C 208.448 329.666,193.528 329.672,190.800 328.697 C 189.810 328.344,187.830 327.846,186.400 327.592 C 184.970 327.337,183.035 326.780,182.100 326.354 C 181.165 325.928,179.843 325.469,179.163 325.333 C 174.517 324.403,165.811 317.909,164.386 314.308 C 164.101 313.589,163.617 312.704,163.310 312.341 C 162.405 311.276,161.858 307.018,161.799 300.600 C 161.733 293.322,159.661 288.343,155.664 285.855 C 155.359 285.665,154.801 285.201,154.423 284.823 C 150.982 281.382,143.663 279.951,138.073 281.625 C 134.258 282.769,129.880 288.750,129.453 293.404 C 129.332 294.726,128.967 296.561,128.642 297.481 C 126.844 302.578,128.082 314.661,130.969 320.200 C 131.314 320.860,131.598 321.580,131.603 321.800 C 131.613 322.333,135.586 328.535,137.368 330.800 C 140.861 335.237,148.737 342.277,151.741 343.646 C 152.324 343.911,152.800 344.271,152.800 344.445 C 152.800 344.620,153.565 345.131,154.500 345.582 C 155.435 346.033,158.270 347.486,160.800 348.812 C 165.522 351.287,169.308 352.810,173.234 353.814 C 174.462 354.128,176.082 354.641,176.834 354.952 C 177.585 355.264,180.015 355.807,182.234 356.158 C 184.453 356.509,186.883 357.022,187.634 357.298 C 189.942 358.146,215.804 357.995,219.400 357.113 C 220.940 356.734,223.640 356.221,225.400 355.971 C 227.160 355.722,228.960 355.324,229.400 355.087 C 229.840 354.851,231.460 354.340,233.000 353.953 C 236.480 353.078,240.103 351.838,242.200 350.804 C 243.080 350.369,244.430 349.738,245.200 349.399 C 247.101 348.564,252.412 345.584,253.754 344.600 C 261.785 338.710,266.803 333.186,269.741 327.000 C 270.577 325.240,271.497 323.350,271.785 322.800 C 272.072 322.250,272.431 321.170,272.582 320.400 C 272.733 319.630,273.245 317.830,273.720 316.400 C 275.696 310.450,274.625 300.512,271.173 292.768 C 270.528 291.321,270.000 289.968,270.000 289.762 C 270.000 284.365,259.132 278.625,251.503 279.993 " stroke="none" fill="#fac316" fill-rule="evenodd"></path><path id="path2" d="M345.000 41.199 C 345.110 41.379,344.830 41.428,344.377 41.310 C 343.771 41.151,343.494 41.320,343.330 41.947 C 343.138 42.682,342.795 42.807,340.853 42.851 C 336.612 42.946,335.430 43.224,335.050 44.215 C 334.902 44.601,334.242 44.802,333.113 44.806 C 332.171 44.809,331.130 44.987,330.800 45.200 C 330.301 45.522,330.333 45.589,330.989 45.594 C 331.712 45.599,331.699 45.655,330.832 46.263 C 330.312 46.627,329.304 46.903,328.592 46.877 C 327.164 46.823,325.718 48.019,326.223 48.837 C 326.417 49.151,326.356 49.220,326.052 49.032 C 325.319 48.579,323.200 49.191,323.200 49.855 C 323.200 50.181,323.017 50.334,322.793 50.196 C 322.570 50.058,322.506 49.732,322.652 49.472 C 322.846 49.127,322.777 49.130,322.396 49.483 C 321.967 49.880,321.968 50.080,322.405 50.606 C 322.697 50.957,322.770 51.214,322.568 51.175 C 321.051 50.887,319.444 51.320,318.490 52.274 C 317.900 52.864,317.063 53.373,316.631 53.405 C 316.199 53.437,315.777 53.719,315.692 54.031 C 315.571 54.482,315.627 54.476,315.963 54.000 C 316.197 53.670,316.391 53.603,316.394 53.851 C 316.403 54.494,315.406 55.234,314.432 55.308 C 313.934 55.345,313.600 55.648,313.600 56.062 C 313.600 56.442,313.440 56.851,313.245 56.972 C 313.050 57.093,312.915 56.898,312.945 56.539 C 313.026 55.576,312.109 55.425,311.815 56.353 C 311.676 56.791,311.167 57.206,310.684 57.275 C 310.118 57.355,309.733 57.756,309.603 58.400 C 309.401 59.393,308.801 59.630,306.515 59.617 C 305.856 59.613,305.694 59.780,305.883 60.271 C 306.053 60.714,305.982 60.836,305.668 60.642 C 305.387 60.468,305.200 60.602,305.200 60.976 C 305.200 61.379,304.810 61.616,304.100 61.646 C 301.981 61.735,301.797 61.807,301.405 62.700 C 301.158 63.262,300.633 63.619,300.005 63.651 C 299.452 63.678,298.616 63.723,298.146 63.751 C 297.676 63.778,296.951 64.220,296.535 64.734 C 295.719 65.741,287.583 66.150,287.267 65.200 C 287.066 64.598,286.400 64.719,286.400 65.357 C 286.400 66.945,283.158 66.705,279.585 64.853 C 277.943 64.002,276.150 63.168,275.600 63.000 C 275.050 62.832,274.122 62.359,273.538 61.948 C 272.954 61.536,272.230 61.200,271.928 61.200 C 271.626 61.200,270.304 60.666,268.990 60.013 C 267.675 59.359,266.323 58.819,265.985 58.813 C 265.646 58.806,264.686 58.452,263.851 58.026 C 263.016 57.600,261.452 57.063,260.377 56.832 C 259.301 56.602,257.744 56.050,256.917 55.607 C 256.089 55.163,254.959 54.794,254.406 54.787 C 253.853 54.780,252.410 54.409,251.200 53.964 C 249.990 53.519,247.530 52.916,245.732 52.625 C 241.697 51.972,239.075 50.432,238.864 48.589 C 238.688 47.056,238.252 46.814,235.658 46.806 C 233.962 46.801,233.268 46.592,232.327 45.800 C 231.080 44.751,229.308 44.393,229.853 45.300 C 230.087 45.690,230.025 45.696,229.570 45.328 C 229.184 45.016,226.923 44.846,222.871 44.824 C 217.367 44.794,216.672 44.712,215.910 44.002 C 215.363 43.493,214.907 43.345,214.619 43.584 C 214.343 43.813,213.949 43.796,213.587 43.539 C 213.104 43.198,213.124 43.164,213.700 43.350 C 214.085 43.474,214.400 43.422,214.400 43.234 C 214.400 42.726,183.914 42.773,183.300 43.283 C 183.005 43.528,182.800 43.541,182.800 43.316 C 182.800 42.341,178.926 42.972,178.600 43.999 C 178.386 44.676,177.902 44.785,174.678 44.885 L 171.000 45.000 170.873 46.100 C 170.784 46.880,170.927 47.200,171.364 47.200 C 171.704 47.200,172.277 47.650,172.637 48.200 C 172.997 48.751,173.708 49.426,174.215 49.700 C 175.672 50.489,180.502 53.840,181.811 54.969 C 182.465 55.533,183.450 56.354,184.000 56.793 C 188.610 60.470,196.058 68.390,199.112 72.864 C 199.614 73.599,200.464 74.830,201.002 75.600 C 201.540 76.370,202.164 77.450,202.390 78.000 C 202.615 78.550,202.983 79.270,203.208 79.600 C 203.432 79.930,203.884 80.830,204.212 81.600 C 204.539 82.370,205.236 83.810,205.759 84.800 C 206.283 85.790,206.844 87.227,207.008 87.994 C 207.171 88.761,207.531 89.751,207.807 90.194 C 208.083 90.637,208.526 92.260,208.790 93.800 C 209.055 95.340,209.538 97.195,209.865 97.922 C 210.191 98.649,210.703 101.439,211.002 104.122 C 211.300 106.805,211.736 110.170,211.969 111.600 C 212.508 114.897,212.522 125.446,211.992 128.600 C 211.771 129.920,211.328 133.556,211.009 136.680 C 210.689 139.803,210.167 142.983,209.848 143.746 C 209.530 144.508,209.051 146.543,208.785 148.266 C 208.519 149.990,208.077 151.762,207.804 152.204 C 207.531 152.646,207.104 153.957,206.855 155.117 C 206.606 156.277,206.042 157.933,205.601 158.797 C 205.161 159.661,204.800 160.615,204.800 160.916 C 204.800 161.218,204.351 162.350,203.802 163.432 C 203.253 164.514,202.803 165.560,202.802 165.755 C 202.800 166.179,199.920 171.938,198.578 174.200 C 198.057 175.080,197.241 176.520,196.765 177.400 C 196.289 178.280,195.652 179.270,195.349 179.600 C 194.167 180.886,192.000 183.689,191.994 183.938 C 191.982 184.456,185.691 191.064,183.497 192.863 C 182.783 193.448,181.570 194.443,180.800 195.075 C 178.550 196.920,173.370 200.167,171.995 200.595 C 171.448 200.766,170.520 201.243,169.934 201.656 C 169.347 202.069,168.267 202.517,167.534 202.652 C 166.800 202.787,165.796 203.149,165.302 203.456 C 164.809 203.764,163.316 204.294,161.986 204.635 C 160.655 204.976,158.959 205.509,158.217 205.818 C 157.476 206.128,155.548 206.576,153.934 206.814 C 152.320 207.052,150.370 207.485,149.600 207.776 C 148.830 208.068,146.226 208.529,143.813 208.802 C 141.399 209.074,138.739 209.539,137.900 209.835 C 137.061 210.131,134.805 210.572,132.887 210.814 C 130.969 211.056,128.320 211.593,127.000 212.007 C 125.680 212.422,123.880 212.879,123.000 213.024 C 120.865 213.375,113.955 215.633,113.200 216.227 C 112.870 216.486,111.901 216.924,111.046 217.198 C 110.191 217.473,108.861 218.126,108.090 218.649 C 107.319 219.172,106.353 219.600,105.944 219.600 C 105.535 219.600,105.200 219.784,105.200 220.009 C 105.200 220.233,104.705 220.628,104.100 220.885 C 103.495 221.142,102.640 221.661,102.200 222.038 C 101.760 222.415,100.842 223.056,100.160 223.462 C 97.482 225.057,93.038 228.486,90.367 231.020 C 89.798 231.559,89.234 232.000,89.113 232.000 C 88.992 232.000,85.497 235.341,81.346 239.425 C 72.625 248.006,72.966 247.692,71.400 248.563 C 70.740 248.930,69.480 249.767,68.600 250.422 C 66.879 251.703,63.048 254.347,61.968 255.000 C 61.604 255.220,60.787 255.744,60.153 256.164 C 59.519 256.584,58.370 257.338,57.600 257.839 C 56.738 258.401,55.241 258.857,53.703 259.027 C 50.672 259.362,49.190 260.488,49.144 262.493 C 49.127 263.212,49.083 266.082,49.045 268.871 C 48.986 273.298,48.877 274.052,48.189 274.812 C 47.391 275.693,46.901 280.632,47.657 280.165 C 47.841 280.051,47.911 280.193,47.813 280.479 C 47.433 281.595,47.233 287.791,47.596 287.205 C 47.886 286.737,47.951 286.795,47.899 287.477 C 47.863 287.954,47.691 288.256,47.517 288.149 C 46.802 287.707,47.265 289.229,48.076 289.985 C 48.874 290.729,48.961 291.247,49.064 295.900 C 49.229 303.323,49.159 302.867,50.092 302.571 C 50.630 302.400,50.809 302.463,50.626 302.757 C 50.476 303.001,50.543 303.200,50.776 303.200 C 51.043 303.200,51.200 304.518,51.200 306.751 C 51.200 309.420,51.349 310.426,51.800 310.800 C 52.130 311.074,52.400 311.150,52.400 310.969 C 52.400 309.520,53.196 311.890,53.253 313.509 C 53.294 314.659,53.491 315.600,53.692 315.600 C 54.390 315.600,55.200 316.749,55.200 317.739 C 55.200 319.171,55.612 320.038,56.142 319.721 C 56.424 319.552,56.406 319.686,56.095 320.070 C 55.683 320.579,55.702 320.787,56.195 321.196 C 56.682 321.600,56.800 321.597,56.800 321.182 C 56.800 320.005,57.216 321.201,57.373 322.830 C 57.497 324.115,57.819 324.810,58.571 325.410 C 59.137 325.861,59.600 326.636,59.600 327.133 C 59.600 327.629,59.825 328.006,60.100 327.970 C 61.292 327.815,61.600 328.068,61.600 329.200 C 61.600 329.860,61.802 330.400,62.049 330.400 C 62.359 330.400,62.344 330.585,62.000 331.000 C 61.585 331.500,61.638 331.600,62.322 331.600 C 62.834 331.600,63.367 332.053,63.743 332.807 C 64.075 333.470,64.150 333.893,63.911 333.745 C 63.651 333.585,63.591 333.662,63.762 333.938 C 63.919 334.192,64.368 334.400,64.759 334.400 C 65.151 334.400,65.682 334.861,65.939 335.425 C 66.266 336.142,66.273 336.369,65.963 336.177 C 65.655 335.987,65.662 336.168,65.985 336.772 C 66.240 337.249,66.874 337.833,67.392 338.069 C 68.003 338.348,68.284 338.763,68.190 339.249 C 68.111 339.662,68.216 340.023,68.423 340.050 C 68.630 340.078,69.025 340.123,69.300 340.150 C 69.575 340.178,69.856 340.681,69.924 341.269 C 70.013 342.045,70.378 342.453,71.254 342.759 C 71.917 342.990,72.358 343.344,72.234 343.544 C 71.973 343.968,72.960 344.907,73.304 344.562 C 73.547 344.320,74.304 345.513,74.345 346.200 C 74.358 346.420,74.724 346.656,75.160 346.725 C 75.603 346.794,76.006 347.218,76.075 347.688 C 76.144 348.150,76.524 348.574,76.920 348.631 C 77.982 348.784,78.783 349.578,78.533 350.229 C 78.372 350.650,78.649 350.800,79.584 350.800 C 80.672 350.800,80.817 350.915,80.600 351.600 C 80.403 352.220,80.594 352.494,81.449 352.818 C 82.055 353.049,82.792 353.582,83.087 354.003 C 83.382 354.424,84.261 354.888,85.040 355.034 C 86.025 355.219,86.568 355.590,86.819 356.250 C 87.060 356.884,87.498 357.200,88.135 357.200 C 88.937 357.200,89.059 357.359,88.898 358.200 C 88.735 359.052,88.855 359.200,89.711 359.200 C 90.273 359.200,91.276 359.724,91.989 360.390 C 92.689 361.044,93.383 361.563,93.531 361.542 C 94.510 361.408,95.148 361.671,94.969 362.136 C 94.699 362.840,95.823 363.754,96.595 363.457 C 96.947 363.322,97.767 363.722,98.553 364.412 C 99.297 365.066,100.131 365.600,100.407 365.600 C 100.683 365.600,101.351 366.078,101.892 366.662 C 102.686 367.518,102.945 367.615,103.232 367.162 C 103.432 366.847,103.590 366.798,103.594 367.050 C 103.597 367.297,104.149 367.610,104.819 367.744 C 105.662 367.912,106.001 368.191,105.919 368.647 C 105.842 369.073,106.126 369.358,106.724 369.454 C 107.375 369.559,107.565 369.454,107.366 369.101 C 107.139 368.700,107.190 368.700,107.621 369.100 C 107.918 369.375,108.799 369.621,109.580 369.646 C 110.361 369.672,110.685 369.775,110.300 369.876 C 108.505 370.345,110.124 371.546,112.800 371.731 C 113.350 371.769,113.991 372.160,114.223 372.600 C 114.456 373.040,114.951 373.375,115.323 373.344 C 115.696 373.314,116.000 373.439,116.000 373.624 C 116.000 373.808,116.945 374.013,118.100 374.079 C 119.886 374.182,120.200 374.319,120.201 374.993 C 120.201 375.658,120.523 375.809,122.193 375.931 C 123.606 376.033,124.452 376.343,125.106 376.997 C 125.841 377.732,126.483 377.923,128.289 377.945 C 129.879 377.964,130.654 378.153,130.893 378.581 C 131.081 378.916,131.608 379.390,132.065 379.635 C 132.701 379.975,132.827 379.967,132.600 379.600 C 132.394 379.267,132.594 379.285,133.252 379.658 C 134.206 380.198,134.548 380.257,137.300 380.349 C 138.316 380.384,138.800 380.586,138.800 380.976 C 138.800 381.893,139.443 382.080,143.327 382.289 C 146.225 382.446,147.114 382.640,147.625 383.229 C 148.131 383.812,148.375 383.867,148.763 383.486 C 149.152 383.104,149.230 383.128,149.129 383.600 C 149.022 384.099,149.726 384.219,153.300 384.314 C 155.665 384.376,157.600 384.584,157.600 384.776 C 157.600 384.968,157.990 385.023,158.467 384.898 C 159.162 384.717,159.283 384.807,159.074 385.351 C 158.744 386.211,159.937 386.744,160.434 385.958 C 160.641 385.631,160.790 385.589,160.794 385.856 C 160.798 386.169,162.338 386.332,165.695 386.376 C 170.087 386.432,170.683 386.526,171.495 387.289 C 172.293 388.039,172.400 388.058,172.400 387.446 C 172.400 387.056,172.587 386.868,172.827 387.017 C 173.062 387.162,173.167 387.508,173.061 387.786 C 172.908 388.183,174.771 388.307,181.704 388.364 C 190.532 388.436,190.542 388.437,191.452 389.418 C 192.434 390.478,193.571 390.658,194.875 389.960 C 195.432 389.662,195.612 389.657,195.434 389.945 C 195.120 390.453,193.703 390.398,212.500 390.614 C 220.805 390.710,227.600 390.656,227.600 390.494 C 227.600 390.332,228.683 390.222,230.007 390.250 C 231.927 390.290,232.328 390.196,231.988 389.785 C 231.680 389.415,231.706 389.181,232.081 388.947 C 232.867 388.456,234.000 388.357,234.000 388.779 C 234.000 389.376,233.063 389.789,232.889 389.268 C 232.803 389.008,232.569 388.896,232.370 389.019 C 232.170 389.142,232.230 389.482,232.504 389.777 C 233.034 390.349,234.966 389.682,235.264 388.824 C 235.345 388.591,238.290 388.404,242.524 388.364 C 249.627 388.296,250.800 388.070,250.800 386.771 C 250.800 386.567,252.510 386.400,254.600 386.400 C 256.867 386.400,258.400 386.239,258.400 386.000 C 258.400 385.780,258.591 385.600,258.824 385.600 C 259.057 385.600,259.125 385.798,258.975 386.040 C 258.790 386.340,258.979 386.332,259.574 386.014 C 260.053 385.757,260.544 385.289,260.665 384.974 C 260.818 384.577,261.527 384.400,262.963 384.400 C 264.105 384.400,265.282 384.175,265.579 383.900 C 266.014 383.496,266.057 383.506,265.803 383.952 C 265.588 384.330,265.664 384.440,266.044 384.302 C 266.350 384.191,266.561 383.915,266.513 383.688 C 266.465 383.462,266.676 383.069,266.981 382.816 C 267.435 382.439,267.496 382.523,267.311 383.277 L 267.084 384.200 267.871 383.320 C 268.430 382.696,269.173 382.420,270.429 382.369 C 272.806 382.272,274.000 381.992,274.000 381.533 C 274.000 381.324,273.775 381.282,273.500 381.441 C 273.210 381.608,273.140 381.576,273.333 381.364 C 273.517 381.164,273.787 380.984,273.933 380.965 C 274.080 380.946,274.498 380.799,274.862 380.637 C 275.226 380.476,276.126 380.282,276.862 380.206 C 277.598 380.131,278.346 380.054,278.524 380.035 C 278.702 380.016,278.712 379.775,278.547 379.500 C 278.307 379.101,278.371 379.100,278.860 379.497 C 279.656 380.141,280.141 379.656,279.497 378.860 C 279.100 378.371,279.101 378.307,279.500 378.547 C 279.775 378.712,280.000 378.657,280.000 378.424 C 280.000 378.178,280.902 378.000,282.145 378.000 C 283.917 378.000,284.470 377.821,285.320 376.971 C 285.886 376.405,286.863 375.902,287.491 375.854 C 288.119 375.806,289.030 375.370,289.516 374.884 C 290.002 374.398,290.838 374.000,291.374 374.000 C 292.960 374.000,294.400 373.280,294.400 372.488 C 294.400 372.001,294.702 371.748,295.300 371.734 C 297.681 371.679,298.039 371.553,298.463 370.621 C 298.740 370.014,299.306 369.597,299.954 369.521 C 300.530 369.455,300.982 369.220,300.960 369.000 C 300.906 368.448,302.052 367.628,302.900 367.613 C 303.285 367.606,303.600 367.420,303.600 367.200 C 303.600 366.980,303.915 366.803,304.300 366.806 C 304.904 366.811,304.918 366.870,304.400 367.237 C 303.867 367.614,303.867 367.642,304.400 367.490 C 304.730 367.396,304.986 366.932,304.968 366.460 C 304.939 365.663,305.402 365.413,306.638 365.556 C 306.879 365.584,307.599 365.115,308.238 364.515 C 308.877 363.914,309.643 363.475,309.940 363.538 C 310.279 363.611,310.366 363.469,310.175 363.159 C 309.962 362.815,310.070 362.741,310.530 362.918 C 310.893 363.057,311.171 363.043,311.148 362.886 C 311.013 361.978,311.256 361.187,311.604 361.402 C 312.481 361.945,313.685 361.155,313.495 360.161 C 313.343 359.366,313.474 359.200,314.255 359.200 C 314.775 359.200,315.200 359.026,315.200 358.813 C 315.200 358.599,315.433 358.515,315.718 358.624 C 316.313 358.852,318.000 357.076,318.000 356.221 C 318.000 355.485,318.669 355.064,318.996 355.593 C 319.134 355.817,319.057 356.000,318.824 356.000 C 318.591 356.000,318.400 356.174,318.400 356.387 C 318.400 356.601,318.670 356.671,319.000 356.545 C 319.330 356.418,319.600 356.083,319.600 355.801 C 319.600 355.518,320.057 355.172,320.615 355.032 C 321.173 354.892,321.602 354.557,321.568 354.289 C 321.434 353.241,321.623 352.834,322.148 353.036 C 322.755 353.268,324.000 352.214,324.000 351.468 C 324.000 351.206,324.379 350.756,324.842 350.467 C 325.458 350.082,325.602 350.073,325.380 350.432 C 325.181 350.754,325.242 350.821,325.557 350.626 C 325.822 350.463,325.985 349.940,325.919 349.465 C 325.824 348.777,326.005 348.600,326.800 348.600 C 327.679 348.600,327.815 348.406,327.927 347.000 C 327.996 346.120,328.198 345.252,328.375 345.072 C 328.552 344.891,328.646 345.204,328.584 345.767 C 328.486 346.662,328.567 346.739,329.236 346.381 C 330.193 345.868,330.237 345.435,329.300 345.749 C 328.843 345.902,328.913 345.761,329.500 345.343 C 329.995 344.991,330.400 344.459,330.400 344.160 C 330.400 343.862,330.850 343.324,331.400 342.963 C 331.950 342.603,332.400 341.998,332.400 341.618 C 332.400 341.239,332.850 340.723,333.400 340.473 C 334.326 340.051,334.590 339.355,334.493 337.600 C 334.465 337.110,334.550 337.123,334.952 337.670 C 335.601 338.553,336.400 337.413,336.400 335.605 C 336.400 334.942,336.580 334.378,336.800 334.350 C 337.020 334.322,337.425 334.278,337.700 334.250 C 337.975 334.223,338.253 333.660,338.317 333.000 C 338.382 332.340,338.545 331.530,338.681 331.200 C 338.816 330.870,338.894 330.452,338.854 330.270 C 338.813 330.089,338.973 330.059,339.208 330.205 C 339.808 330.576,340.800 329.654,340.800 328.724 C 340.800 328.297,341.256 327.348,341.814 326.617 C 342.372 325.885,342.801 325.132,342.767 324.943 C 342.467 323.279,342.878 321.951,343.800 321.600 C 344.672 321.268,344.801 320.976,344.807 319.310 C 344.812 317.801,345.022 317.202,345.807 316.458 C 346.701 315.610,346.800 315.201,346.800 312.358 C 346.800 310.519,346.967 309.200,347.200 309.200 C 347.420 309.200,347.600 309.009,347.600 308.776 C 347.600 308.543,347.420 308.464,347.200 308.600 C 346.980 308.736,346.800 308.547,346.800 308.180 C 346.800 307.669,347.033 307.572,347.800 307.764 C 348.586 307.961,348.799 307.863,348.794 307.308 C 348.789 306.758,348.711 306.721,348.444 307.143 C 348.202 307.524,348.018 307.553,347.825 307.240 C 347.673 306.995,347.831 306.686,348.174 306.555 C 348.729 306.342,348.796 304.267,348.772 288.151 C 348.755 277.218,348.598 270.078,348.377 270.214 C 348.175 270.339,348.112 270.173,348.238 269.845 C 348.373 269.494,348.124 269.034,347.633 268.728 C 346.891 268.265,346.800 267.822,346.800 264.685 C 346.800 261.441,346.721 261.088,345.800 260.235 C 344.921 259.421,344.799 258.974,344.794 256.554 C 344.791 255.039,344.594 253.530,344.356 253.200 C 344.004 252.711,343.969 252.748,344.163 253.400 C 344.384 254.140,344.362 254.148,343.861 253.506 C 343.564 253.125,343.236 252.897,343.133 253.000 C 342.941 253.192,342.845 252.066,342.763 248.700 C 342.738 247.655,342.535 246.800,342.312 246.800 C 342.089 246.800,342.005 246.422,342.126 245.960 C 342.247 245.499,342.247 245.220,342.125 245.341 C 341.611 245.856,340.800 244.334,340.800 242.852 C 340.800 241.969,340.637 241.146,340.438 241.023 C 340.238 240.900,340.164 240.460,340.272 240.045 C 340.381 239.630,340.243 239.150,339.967 238.980 C 339.600 238.753,339.542 238.876,339.752 239.434 C 340.027 240.163,340.002 240.161,339.247 239.400 C 338.661 238.810,338.427 237.970,338.357 236.200 C 338.305 234.880,338.068 233.668,337.831 233.506 C 337.545 233.311,337.576 233.210,337.924 233.206 C 338.212 233.203,338.331 233.013,338.190 232.784 C 338.048 232.555,337.588 232.477,337.166 232.611 C 336.432 232.844,336.020 229.496,336.337 225.872 C 336.405 225.088,335.528 224.000,334.829 224.000 C 334.446 224.000,334.143 215.551,334.392 211.855 C 334.450 211.001,334.334 210.787,333.935 211.014 C 333.504 211.258,333.497 211.212,333.900 210.779 C 334.453 210.183,334.584 209.439,334.081 209.750 C 333.905 209.858,333.500 209.782,333.181 209.580 C 332.699 209.275,332.719 209.211,333.300 209.206 C 333.685 209.203,334.000 209.009,334.000 208.776 C 334.000 208.543,333.775 208.488,333.500 208.653 C 333.135 208.872,333.143 208.777,333.528 208.302 C 334.090 207.608,333.572 206.000,332.786 206.000 C 331.882 206.000,332.316 187.400,333.240 186.564 C 333.900 185.967,334.036 185.484,333.878 184.302 C 333.767 183.476,333.812 182.884,333.978 182.986 C 334.144 183.089,334.315 177.748,334.357 171.118 C 334.421 161.041,334.530 158.993,335.022 158.632 C 336.025 157.895,336.924 152.836,335.947 153.424 C 335.505 153.690,335.493 153.638,335.887 153.151 C 336.507 152.385,336.531 138.849,335.914 138.100 C 335.621 137.745,335.654 137.600,336.027 137.600 C 336.350 137.600,336.253 137.368,335.776 136.999 C 335.129 136.498,335.116 136.439,335.700 136.642 C 336.184 136.810,336.400 136.680,336.400 136.219 C 336.400 135.853,336.232 135.657,336.026 135.784 C 335.796 135.926,335.785 135.548,335.998 134.808 C 336.366 133.524,336.102 133.283,335.221 134.100 C 334.816 134.476,334.751 134.479,334.958 134.111 C 335.740 132.723,340.495 132.005,348.874 132.008 C 349.485 132.009,350.183 131.673,350.493 131.231 C 350.951 130.577,351.675 130.419,355.019 130.241 C 361.038 129.920,361.004 129.927,360.968 128.900 C 360.938 128.046,361.085 128.000,363.868 128.000 C 365.944 128.000,366.802 127.854,366.806 127.500 C 366.811 127.143,366.913 127.159,367.166 127.558 C 367.451 128.009,367.718 127.919,368.546 127.090 C 369.220 126.416,370.092 126.028,371.086 125.959 C 372.959 125.830,374.000 125.347,374.000 124.608 C 374.000 124.219,374.589 124.006,375.900 123.922 C 377.579 123.814,377.796 123.695,377.768 122.900 C 377.742 122.153,377.948 122.000,378.979 122.000 C 380.478 122.000,382.136 120.932,381.839 120.158 C 381.686 119.760,381.956 119.600,382.784 119.600 C 383.543 119.600,384.213 119.255,384.729 118.600 C 385.161 118.050,385.816 117.600,386.184 117.600 C 387.181 117.600,388.400 116.846,388.400 116.229 C 388.400 115.931,388.866 115.570,389.436 115.427 C 390.078 115.265,390.395 114.963,390.268 114.632 C 390.006 113.951,390.747 113.200,391.680 113.200 C 392.321 113.200,392.660 112.109,392.452 110.714 C 392.429 110.557,392.651 110.521,392.946 110.634 C 393.578 110.877,394.800 109.169,394.800 108.042 C 394.800 107.531,395.115 107.211,395.700 107.128 C 396.464 107.019,396.630 106.697,396.800 104.997 C 396.967 103.327,397.133 102.995,397.800 102.997 C 398.483 103.000,398.618 102.694,398.721 100.900 C 398.808 99.389,399.004 98.800,399.421 98.800 C 399.917 98.800,400.000 96.448,400.000 82.400 C 400.000 68.089,399.924 66.000,399.400 66.000 C 398.939 66.000,398.800 65.487,398.800 63.782 C 398.800 62.240,398.648 61.585,398.300 61.630 C 397.108 61.785,396.800 61.532,396.800 60.400 C 396.800 59.740,396.620 59.200,396.400 59.200 C 396.180 59.200,396.000 59.009,396.000 58.776 C 396.000 58.543,396.203 58.478,396.452 58.632 C 396.729 58.803,396.826 58.696,396.702 58.356 C 396.591 58.050,396.315 57.839,396.088 57.887 C 395.578 57.995,394.766 57.053,394.642 56.209 C 394.592 55.862,394.381 55.565,394.175 55.550 C 393.288 55.482,392.447 54.743,392.651 54.211 C 392.797 53.832,392.529 53.547,391.871 53.382 C 391.297 53.238,390.775 52.755,390.649 52.252 C 390.513 51.712,390.089 51.347,389.550 51.306 C 388.547 51.231,387.977 50.524,388.281 49.732 C 388.428 49.351,388.210 49.234,387.544 49.336 C 386.849 49.442,386.417 49.180,385.906 48.340 C 385.524 47.713,384.939 47.178,384.606 47.150 C 384.273 47.123,383.616 47.078,383.146 47.050 C 382.654 47.021,382.150 46.618,381.959 46.100 C 381.776 45.605,381.575 45.196,381.513 45.190 C 378.713 44.949,376.919 44.577,376.489 44.146 C 376.188 43.846,375.765 43.600,375.548 43.600 C 375.331 43.600,375.264 43.420,375.400 43.200 C 375.556 42.947,374.544 42.800,372.642 42.800 C 369.959 42.800,369.528 42.691,368.623 41.787 L 367.610 40.773 356.204 40.823 C 349.931 40.851,344.889 41.020,345.000 41.199 M381.337 45.730 C 381.482 45.585,381.600 45.767,381.600 46.133 C 381.600 47.004,381.474 46.976,380.562 45.907 C 380.095 45.360,380.047 45.203,380.437 45.503 C 380.787 45.773,381.192 45.875,381.337 45.730 M269.235 144.589 C 275.592 148.865,278.633 153.170,280.258 160.200 C 283.721 175.173,273.671 188.498,261.847 184.610 C 258.736 183.587,257.840 183.062,254.821 180.491 C 253.417 179.296,249.600 174.145,249.600 173.446 C 249.600 173.283,249.105 172.127,248.500 170.875 C 247.439 168.681,247.400 168.373,247.409 162.200 L 247.418 155.800 248.885 152.800 C 250.918 148.645,254.416 145.012,257.781 143.561 C 259.872 142.660,267.368 143.332,269.235 144.589 M140.522 145.989 C 127.587 149.834,123.503 172.394,134.133 181.279 C 139.608 185.856,145.288 185.575,151.197 180.435 C 152.519 179.285,153.600 178.176,153.600 177.969 C 153.600 177.762,154.140 176.848,154.800 175.937 C 155.460 175.025,156.000 174.035,156.000 173.736 C 156.000 173.436,156.405 172.338,156.900 171.296 C 158.259 168.434,158.260 157.716,156.901 155.600 C 156.407 154.830,156.001 153.930,155.998 153.600 C 155.992 152.946,153.870 150.052,152.108 148.295 C 149.638 145.832,144.493 144.808,140.522 145.989 M144.791 265.086 C 146.006 265.412,148.079 265.940,149.398 266.258 C 150.717 266.576,152.157 267.071,152.598 267.358 C 153.039 267.644,154.120 268.112,155.000 268.398 C 155.880 268.683,157.029 269.250,157.554 269.658 C 158.079 270.066,158.738 270.400,159.020 270.400 C 159.828 270.400,165.913 275.972,168.194 278.800 C 172.262 283.844,173.537 300.414,170.025 302.585 C 169.791 302.729,169.600 303.189,169.600 303.607 C 169.600 304.404,167.503 306.757,165.303 308.429 L 164.007 309.415 164.801 311.505 C 165.237 312.654,165.911 313.976,166.297 314.443 C 168.368 316.943,171.837 320.074,173.316 320.778 C 174.242 321.219,175.270 321.749,175.600 321.956 C 177.148 322.924,180.795 324.398,182.600 324.784 C 183.700 325.019,185.230 325.470,186.000 325.786 C 186.770 326.102,190.429 326.747,194.131 327.221 L 200.863 328.082 208.316 327.208 C 212.415 326.727,216.226 326.103,216.784 325.820 C 217.343 325.538,218.790 325.077,220.000 324.795 C 221.210 324.514,222.613 323.962,223.119 323.569 C 223.624 323.177,224.557 322.741,225.191 322.602 C 225.826 322.463,226.570 322.077,226.846 321.745 C 227.121 321.413,227.989 320.806,228.773 320.397 C 230.182 319.661,234.800 315.538,234.800 315.016 C 234.800 314.868,235.265 314.137,235.833 313.392 C 237.223 311.570,236.990 310.714,234.998 310.316 C 234.119 310.140,233.040 309.830,232.600 309.626 C 232.160 309.422,231.136 309.053,230.325 308.805 C 228.140 308.137,225.773 305.589,224.087 302.088 L 222.600 299.000 222.600 292.600 C 222.600 286.436,222.641 286.116,223.700 283.925 C 224.305 282.673,224.803 281.503,224.807 281.325 C 224.816 280.924,226.744 278.057,228.044 276.512 C 229.398 274.904,234.824 270.400,235.408 270.400 C 235.674 270.400,236.321 270.066,236.846 269.658 C 237.371 269.250,238.520 268.683,239.400 268.398 C 240.280 268.112,241.380 267.631,241.845 267.329 C 242.310 267.027,244.002 266.506,245.605 266.172 C 247.207 265.838,248.855 265.385,249.266 265.165 C 251.736 263.843,266.288 263.962,269.600 265.332 C 270.370 265.650,271.760 266.036,272.688 266.188 C 273.617 266.341,274.787 266.787,275.288 267.178 C 275.790 267.570,276.617 268.021,277.126 268.180 C 282.228 269.779,285.636 278.345,282.570 281.862 C 280.432 284.315,278.993 285.565,278.031 285.807 C 277.478 285.945,276.120 286.473,275.013 286.979 C 273.906 287.485,272.685 288.006,272.300 288.137 C 271.376 288.451,271.401 290.038,272.348 291.246 C 272.759 291.771,273.229 292.830,273.391 293.600 C 273.554 294.370,274.020 295.810,274.427 296.800 C 276.472 301.771,276.475 315.071,274.433 320.000 C 274.023 320.990,273.554 322.430,273.391 323.200 C 273.229 323.970,272.772 325.013,272.376 325.519 C 271.979 326.024,271.543 326.950,271.405 327.577 C 271.267 328.204,270.805 329.034,270.377 329.421 C 269.950 329.807,269.600 330.326,269.600 330.573 C 269.600 330.975,267.156 334.454,265.787 336.000 C 262.627 339.571,256.242 345.180,253.672 346.644 C 252.942 347.060,251.502 347.889,250.472 348.486 C 247.457 350.235,242.158 352.800,241.555 352.802 C 241.250 352.803,240.114 353.253,239.032 353.802 C 237.950 354.351,236.690 354.804,236.232 354.809 C 235.774 354.814,234.610 355.176,233.646 355.614 C 232.681 356.051,230.611 356.599,229.046 356.831 C 227.480 357.063,225.660 357.496,225.000 357.795 C 224.340 358.093,221.190 358.538,218.000 358.782 C 214.810 359.026,210.175 359.413,207.700 359.642 C 204.587 359.929,201.813 359.929,198.700 359.642 C 196.225 359.413,191.604 359.026,188.432 358.783 C 185.259 358.539,182.019 358.088,181.232 357.781 C 180.444 357.474,178.694 357.051,177.342 356.840 C 175.989 356.630,174.099 356.105,173.142 355.674 C 172.184 355.243,170.770 354.761,170.000 354.602 C 169.230 354.444,168.039 353.973,167.353 353.557 C 166.667 353.141,165.791 352.800,165.407 352.800 C 165.023 352.800,163.874 352.359,162.854 351.820 C 161.834 351.282,160.325 350.571,159.500 350.241 C 158.675 349.911,158.000 349.471,158.000 349.264 C 158.000 349.056,157.578 348.781,157.061 348.651 C 155.934 348.368,151.957 346.015,151.015 345.072 C 150.645 344.703,150.193 344.400,150.009 344.400 C 149.826 344.400,148.894 343.773,147.938 343.007 C 146.982 342.240,145.769 341.295,145.243 340.907 C 144.261 340.182,137.079 333.077,136.239 332.000 C 133.618 328.638,131.172 324.849,130.688 323.400 C 130.467 322.740,130.056 321.930,129.773 321.600 C 129.491 321.270,129.037 320.100,128.764 319.000 C 128.492 317.900,128.038 316.640,127.757 316.200 C 125.904 313.304,125.946 297.184,127.816 293.569 C 128.545 292.160,128.038 290.590,126.723 290.182 C 126.215 290.024,125.350 289.582,124.800 289.199 C 124.250 288.817,122.774 288.208,121.520 287.847 C 120.267 287.485,119.134 287.017,119.003 286.806 C 118.873 286.594,118.078 286.236,117.237 286.010 C 112.418 284.712,108.768 278.001,111.200 274.909 C 111.640 274.350,112.000 273.678,112.000 273.416 C 112.000 272.729,116.314 268.480,117.337 268.160 C 117.812 268.012,118.610 267.570,119.112 267.178 C 119.613 266.787,120.783 266.341,121.712 266.188 C 122.640 266.036,124.030 265.648,124.800 265.327 C 128.045 263.974,140.118 263.828,144.791 265.086 " stroke="none" fill="#e3e3e3" fill-rule="evenodd"></path><path id="path3" d="M169.300 45.065 C 168.732 45.294,168.608 47.200,169.160 47.200 C 169.359 47.200,169.898 47.839,170.359 48.620 C 170.820 49.401,171.785 50.285,172.506 50.587 C 173.227 50.888,174.155 51.509,174.570 51.967 C 174.985 52.425,175.493 52.800,175.699 52.800 C 175.905 52.800,176.598 53.205,177.240 53.700 C 177.881 54.195,179.170 55.191,180.103 55.914 C 181.036 56.636,182.221 57.536,182.736 57.914 C 183.580 58.533,184.567 59.448,189.836 64.499 C 192.099 66.669,193.600 68.380,193.600 68.789 C 193.600 68.986,193.960 69.260,194.400 69.400 C 194.840 69.540,195.200 69.869,195.200 70.131 C 195.200 70.393,195.650 71.093,196.200 71.687 C 196.750 72.280,197.200 72.939,197.200 73.152 C 197.200 73.365,197.682 74.112,198.272 74.812 C 198.861 75.513,199.626 76.596,199.972 77.218 C 201.524 80.017,203.600 84.183,203.600 84.501 C 203.600 84.693,204.032 85.784,204.561 86.925 C 206.092 90.233,207.212 93.897,208.007 98.204 C 208.414 100.406,208.938 102.710,209.171 103.325 C 210.509 106.843,210.528 133.907,209.195 137.412 C 208.968 138.009,208.504 140.498,208.163 142.943 C 207.822 145.387,207.381 147.582,207.182 147.821 C 206.984 148.060,206.544 149.503,206.204 151.028 C 205.864 152.552,205.243 154.610,204.825 155.600 C 204.406 156.590,203.799 158.210,203.475 159.200 C 202.323 162.723,201.090 165.809,200.599 166.400 C 200.325 166.730,199.889 167.661,199.630 168.468 C 199.371 169.275,198.907 170.145,198.600 170.400 C 198.293 170.655,197.830 171.525,197.571 172.332 C 197.313 173.139,196.803 174.160,196.439 174.600 C 195.135 176.175,193.200 179.139,193.200 179.562 C 193.200 179.799,192.840 180.218,192.400 180.493 C 191.960 180.768,191.600 181.213,191.600 181.482 C 191.600 181.752,191.105 182.499,190.500 183.144 C 189.895 183.788,187.878 185.954,186.017 187.957 C 184.157 189.961,182.467 191.600,182.263 191.600 C 182.059 191.600,181.421 192.052,180.846 192.604 C 178.469 194.887,178.101 195.200,177.796 195.200 C 177.620 195.200,176.907 195.634,176.212 196.163 C 175.518 196.693,174.331 197.410,173.575 197.755 C 172.819 198.101,171.930 198.557,171.600 198.769 C 169.407 200.176,163.511 202.449,159.400 203.471 C 158.080 203.799,156.190 204.338,155.200 204.669 C 154.210 205.000,151.690 205.527,149.600 205.840 C 147.510 206.154,144.990 206.672,144.000 206.992 C 143.010 207.312,140.001 207.840,137.314 208.165 C 134.626 208.491,132.106 208.924,131.714 209.127 C 131.321 209.331,129.476 209.716,127.613 209.983 C 125.751 210.251,123.771 210.703,123.213 210.989 C 122.656 211.275,121.120 211.730,119.800 212.001 C 118.480 212.271,116.732 212.832,115.916 213.246 C 115.100 213.661,114.199 214.000,113.914 214.000 C 113.348 214.000,106.723 217.131,106.400 217.552 C 106.290 217.695,104.850 218.503,103.200 219.347 C 101.550 220.190,99.930 221.204,99.600 221.598 C 99.270 221.992,98.595 222.436,98.100 222.584 C 97.605 222.733,97.200 223.007,97.200 223.194 C 97.200 223.382,96.525 223.941,95.700 224.438 C 94.078 225.416,93.752 225.669,91.535 227.675 C 90.729 228.404,89.559 229.424,88.935 229.943 C 87.706 230.963,80.880 237.593,80.159 238.466 C 78.911 239.977,71.580 246.373,69.440 247.817 C 68.802 248.248,67.513 249.140,66.576 249.800 C 64.332 251.380,60.597 253.873,58.600 255.123 C 57.720 255.674,56.512 256.457,55.916 256.863 C 55.256 257.312,54.122 257.600,53.016 257.600 C 51.522 257.600,51.200 257.730,51.200 258.333 C 51.200 259.838,55.484 258.977,58.800 256.806 C 59.790 256.157,61.230 255.258,62.000 254.807 C 62.770 254.355,64.210 253.359,65.200 252.593 C 66.190 251.827,67.585 250.897,68.300 250.526 C 69.015 250.155,69.600 249.709,69.600 249.534 C 69.600 249.359,70.282 248.869,71.115 248.444 C 71.948 248.019,73.918 246.440,75.494 244.935 C 77.069 243.431,78.683 241.913,79.079 241.563 C 79.476 241.212,80.919 239.772,82.286 238.363 C 87.349 233.143,98.425 223.600,99.421 223.600 C 99.557 223.600,100.419 223.087,101.335 222.459 C 103.774 220.789,105.226 219.900,106.800 219.115 C 107.570 218.731,108.470 218.252,108.800 218.050 C 111.552 216.368,118.156 213.899,122.200 213.042 C 123.520 212.762,125.500 212.243,126.600 211.889 C 127.700 211.535,130.040 211.045,131.800 210.800 C 133.560 210.556,135.900 210.106,137.000 209.801 C 138.100 209.495,141.088 208.974,143.640 208.642 C 146.192 208.309,148.712 207.860,149.240 207.642 C 149.768 207.424,151.460 207.045,153.000 206.800 C 155.452 206.409,159.574 205.271,163.400 203.927 C 164.060 203.695,165.680 203.143,167.000 202.700 C 168.320 202.257,169.670 201.669,170.000 201.394 C 170.330 201.120,171.020 200.766,171.534 200.609 C 173.115 200.127,177.249 197.485,181.737 194.087 C 184.413 192.063,190.660 185.711,191.800 183.858 C 192.240 183.142,192.819 182.296,193.086 181.978 C 195.324 179.316,196.264 177.874,199.114 172.735 C 200.903 169.510,202.493 166.360,202.647 165.735 C 202.801 165.111,203.169 164.226,203.465 163.768 C 203.760 163.311,204.288 161.975,204.637 160.799 C 204.986 159.624,205.508 158.288,205.796 157.831 C 206.085 157.374,206.518 156.046,206.760 154.880 C 207.002 153.714,207.444 152.274,207.742 151.680 C 208.040 151.086,208.508 149.178,208.781 147.441 C 209.054 145.703,209.528 143.570,209.835 142.700 C 210.365 141.199,211.199 134.315,212.029 124.600 C 212.416 120.062,212.201 116.095,210.992 105.478 C 210.646 102.440,210.168 99.470,209.930 98.878 C 209.692 98.285,209.169 96.360,208.768 94.600 C 207.924 90.898,206.309 86.061,205.469 84.724 C 205.150 84.216,204.680 83.139,204.424 82.332 C 204.168 81.525,203.710 80.657,203.405 80.404 C 203.101 80.152,202.740 79.436,202.603 78.814 C 202.466 78.192,202.005 77.366,201.577 76.979 C 201.150 76.593,200.796 76.079,200.791 75.838 C 200.730 72.986,186.207 58.010,178.355 52.703 C 176.812 51.659,175.277 50.534,174.946 50.203 C 174.614 49.871,174.197 49.600,174.018 49.600 C 173.243 49.600,170.354 46.221,170.535 45.526 C 170.721 44.816,170.303 44.660,169.300 45.065 M157.200 48.184 C 157.200 49.004,156.916 49.244,155.500 49.622 C 154.565 49.872,152.630 50.414,151.200 50.827 C 149.770 51.240,147.610 51.833,146.400 52.143 C 142.089 53.250,137.205 54.777,136.032 55.384 C 135.376 55.723,134.601 56.000,134.310 56.000 C 134.018 56.000,132.704 56.534,131.390 57.187 C 130.075 57.841,128.802 58.381,128.560 58.387 C 128.038 58.402,124.004 60.517,118.424 63.700 C 115.943 65.115,113.922 66.000,113.172 66.000 C 112.461 66.000,112.056 66.167,112.200 66.400 C 112.773 67.327,114.925 66.800,117.800 65.028 C 120.643 63.275,125.913 60.400,126.282 60.400 C 126.479 60.400,126.856 60.184,127.121 59.919 C 127.589 59.451,130.332 58.321,134.800 56.756 C 136.010 56.332,137.540 55.732,138.200 55.422 C 138.860 55.113,140.300 54.640,141.400 54.371 C 142.500 54.103,143.850 53.663,144.400 53.394 C 144.950 53.124,146.300 52.774,147.400 52.614 C 152.468 51.881,157.819 49.656,158.104 48.166 C 158.226 47.527,158.105 47.200,157.745 47.200 C 157.433 47.200,157.200 47.621,157.200 48.184 M142.000 143.587 C 140.272 143.856,136.453 145.562,135.200 146.625 C 132.391 149.007,128.800 153.571,128.800 154.759 C 128.800 155.010,128.305 156.156,127.700 157.307 C 126.164 160.229,126.014 171.386,127.470 174.400 C 127.948 175.390,128.600 176.830,128.919 177.600 C 131.483 183.795,141.260 188.063,146.830 185.419 C 150.630 183.615,152.331 182.210,155.508 178.250 C 157.632 175.603,159.415 169.882,159.895 164.179 C 160.112 161.595,158.389 152.800,157.665 152.800 C 157.498 152.800,157.133 152.170,156.855 151.400 C 156.576 150.630,156.000 149.814,155.574 149.586 C 155.148 149.358,154.800 148.915,154.800 148.600 C 154.800 148.285,154.395 147.812,153.900 147.549 C 153.405 147.285,152.820 146.835,152.600 146.548 C 151.066 144.551,145.608 143.026,142.000 143.587 M258.505 143.623 C 255.702 144.482,249.600 150.035,249.600 151.727 C 249.600 151.994,249.232 152.899,248.781 153.739 C 246.304 158.362,247.672 173.174,250.763 175.188 C 250.942 175.305,251.374 175.958,251.723 176.640 C 252.370 177.902,255.883 181.600,256.435 181.600 C 256.602 181.600,257.247 182.022,257.869 182.538 C 265.587 188.942,277.839 182.851,280.160 171.457 C 281.582 164.476,279.793 155.221,276.277 151.375 C 276.015 151.088,275.270 150.121,274.623 149.227 C 273.976 148.332,273.301 147.600,273.123 147.600 C 272.945 147.600,272.471 147.271,272.069 146.869 C 269.136 143.936,262.593 142.371,258.505 143.623 M267.600 145.935 C 271.255 147.604,276.800 153.305,276.800 155.392 C 276.800 155.623,277.171 156.504,277.624 157.350 C 280.550 162.808,279.182 173.769,274.931 178.931 C 271.485 183.115,263.694 184.638,259.744 181.900 C 258.871 181.295,258.010 180.800,257.830 180.800 C 257.105 180.800,252.931 175.974,251.909 173.956 C 247.676 165.596,247.804 158.074,252.313 150.200 C 252.691 149.540,253.228 148.855,253.506 148.677 C 253.785 148.499,254.325 148.027,254.706 147.629 C 255.415 146.888,258.602 145.274,260.400 144.745 C 262.115 144.241,264.895 144.700,267.600 145.935 M147.200 145.623 C 151.827 147.069,154.082 149.221,156.674 154.665 L 158.167 157.800 158.143 163.400 C 158.083 177.695,147.284 188.265,137.465 183.639 C 121.314 176.030,126.622 146.326,144.400 144.827 C 144.510 144.818,145.770 145.176,147.200 145.623 M342.800 251.902 C 342.800 252.122,343.070 252.526,343.400 252.800 C 343.735 253.078,344.000 253.121,344.000 252.898 C 344.000 252.678,343.730 252.274,343.400 252.000 C 343.065 251.722,342.800 251.679,342.800 251.902 M128.000 264.781 C 122.835 265.990,119.722 266.961,118.873 267.628 C 118.334 268.053,117.658 268.400,117.373 268.400 C 115.752 268.400,111.372 274.131,110.660 277.184 C 110.020 279.932,114.072 285.050,117.653 286.014 C 118.485 286.238,119.267 286.585,119.391 286.785 C 119.514 286.984,120.646 287.445,121.907 287.810 C 123.168 288.174,124.470 288.691,124.800 288.959 C 127.464 291.120,129.734 290.899,131.024 288.353 C 135.216 280.081,147.785 278.185,154.423 284.823 C 154.801 285.201,155.359 285.665,155.664 285.855 C 159.607 288.309,161.800 293.436,161.675 299.905 C 161.567 305.460,161.988 308.156,163.027 308.555 C 164.580 309.151,168.112 306.407,169.404 303.600 C 169.758 302.830,170.290 301.773,170.585 301.252 C 172.608 297.679,172.157 287.113,169.773 282.247 C 167.351 277.302,162.284 271.930,158.530 270.328 C 157.908 270.062,157.130 269.633,156.800 269.373 C 156.470 269.114,155.480 268.675,154.600 268.398 C 153.720 268.122,152.792 267.731,152.537 267.530 C 149.994 265.519,132.988 263.613,128.000 264.781 M252.400 264.676 C 251.850 264.768,250.590 265.092,249.600 265.396 C 248.610 265.700,246.720 266.161,245.400 266.422 C 244.080 266.682,242.370 267.209,241.600 267.593 C 240.830 267.976,239.120 268.807,237.800 269.439 C 233.249 271.618,229.007 275.199,226.398 279.064 C 219.129 289.835,222.056 305.960,231.850 309.100 C 239.648 311.600,240.898 308.840,236.973 297.787 C 234.665 291.286,239.566 283.665,247.800 280.949 C 256.362 278.126,264.600 280.587,268.875 287.245 C 269.677 288.494,272.587 288.291,274.966 286.821 C 275.697 286.370,276.561 286.000,276.887 286.000 C 277.879 286.000,280.814 283.808,282.247 281.997 C 285.358 278.066,282.445 270.668,276.851 268.292 C 276.273 268.046,275.523 267.617,275.185 267.338 C 274.601 266.855,272.335 266.200,267.000 264.970 C 264.756 264.453,254.918 264.255,252.400 264.676 M142.557 266.799 C 145.833 267.230,148.893 267.822,149.357 268.114 C 149.821 268.406,151.010 268.875,152.000 269.156 C 154.465 269.856,157.921 271.565,159.122 272.678 C 159.669 273.185,160.328 273.600,160.586 273.600 C 160.844 273.600,161.447 274.050,161.925 274.600 C 162.403 275.150,162.932 275.600,163.099 275.600 C 163.381 275.600,164.021 276.371,167.214 280.555 C 167.866 281.410,168.400 282.357,168.400 282.659 C 168.400 282.962,168.805 284.062,169.300 285.104 C 171.909 290.600,168.997 306.000,165.349 306.000 C 165.101 306.000,164.674 306.270,164.400 306.600 C 162.975 308.317,162.369 306.089,162.495 299.600 C 162.641 292.081,159.945 287.378,152.777 282.654 C 145.298 277.725,132.848 280.518,130.590 287.632 C 130.162 288.980,128.446 289.385,127.168 288.440 C 126.132 287.673,119.232 284.800,118.429 284.800 C 116.115 284.800,112.710 280.636,112.743 277.848 C 112.780 274.742,116.119 269.645,118.154 269.587 C 118.399 269.581,119.500 269.126,120.600 268.577 C 122.342 267.708,125.012 267.141,131.400 266.281 C 134.066 265.923,136.882 266.053,142.557 266.799 M268.099 266.984 C 270.243 267.312,272.403 267.835,272.899 268.145 C 273.395 268.456,274.475 268.925,275.299 269.186 C 277.910 270.014,280.911 273.578,282.155 277.328 C 282.935 279.678,279.196 283.629,274.600 285.312 C 269.551 287.162,270.319 287.287,267.197 284.109 C 255.446 272.146,230.993 283.373,236.319 298.287 C 237.104 300.485,237.668 302.833,238.184 306.048 C 238.621 308.769,232.968 309.158,229.946 306.616 C 229.282 306.057,228.603 305.600,228.437 305.600 C 227.826 305.600,225.665 301.730,224.973 299.400 C 222.177 289.982,226.323 278.075,233.984 273.520 C 234.763 273.056,235.582 272.480,235.804 272.239 C 236.422 271.568,240.381 269.714,242.400 269.149 C 243.390 268.872,244.584 268.403,245.054 268.107 C 247.784 266.386,260.224 265.779,268.099 266.984 M47.362 280.554 C 47.245 280.859,47.210 281.894,47.283 282.854 C 47.413 284.544,47.423 284.526,47.609 282.299 C 47.803 279.965,47.745 279.556,47.362 280.554 M347.700 307.363 C 346.676 308.444,346.550 308.871,347.346 308.565 C 347.780 308.399,349.038 306.381,348.691 306.407 C 348.641 306.411,348.195 306.841,347.700 307.363 M158.000 384.986 C 158.000 385.088,158.356 385.362,158.791 385.595 C 159.436 385.941,159.539 385.906,159.348 385.409 C 159.141 384.869,158.000 384.511,158.000 384.986 M232.693 389.200 C 232.316 389.640,232.108 390.000,232.230 390.000 C 232.748 390.000,234.000 389.141,234.000 388.786 C 234.000 388.160,233.428 388.342,232.693 389.200 " stroke="none" fill="#7c7c7c" fill-rule="evenodd"></path><path id="path4" d="M238.264 47.107 C 238.519 47.270,238.789 47.936,238.864 48.589 C 239.075 50.432,241.697 51.972,245.732 52.625 C 247.530 52.916,249.990 53.519,251.200 53.964 C 252.410 54.409,253.853 54.780,254.406 54.787 C 254.959 54.794,256.089 55.163,256.917 55.607 C 257.744 56.050,259.301 56.602,260.377 56.832 C 261.452 57.063,263.016 57.600,263.851 58.026 C 264.686 58.452,265.646 58.806,265.985 58.813 C 266.323 58.819,267.675 59.359,268.990 60.013 C 270.304 60.666,271.626 61.200,271.928 61.200 C 272.230 61.200,272.954 61.536,273.538 61.948 C 274.122 62.359,275.050 62.832,275.600 63.000 C 276.150 63.168,277.943 64.002,279.585 64.853 C 281.232 65.706,283.145 66.400,283.852 66.400 C 287.040 66.400,287.390 65.000,284.300 64.610 C 283.033 64.450,280.534 63.542,278.000 62.320 C 271.586 59.228,269.939 58.496,268.200 57.966 C 267.320 57.698,266.240 57.248,265.800 56.965 C 265.360 56.683,264.100 56.231,263.000 55.960 C 261.900 55.690,260.639 55.236,260.198 54.953 C 259.757 54.669,258.317 54.176,256.998 53.857 C 255.679 53.538,253.878 53.013,252.995 52.690 C 252.112 52.367,250.582 51.979,249.595 51.829 C 248.608 51.679,246.810 51.222,245.600 50.814 C 244.390 50.405,242.555 49.855,241.523 49.590 C 240.014 49.203,239.568 48.883,239.244 47.955 C 239.023 47.320,238.607 46.803,238.321 46.806 C 237.944 46.811,237.928 46.894,238.264 47.107 M187.200 59.725 C 187.200 59.794,187.785 60.379,188.500 61.025 L 189.800 62.200 188.625 60.900 C 187.530 59.688,187.200 59.416,187.200 59.725 M192.000 64.525 C 192.000 64.594,192.585 65.179,193.300 65.825 L 194.600 67.000 193.425 65.700 C 192.330 64.488,192.000 64.216,192.000 64.525 M212.128 115.600 C 212.128 117.030,212.201 117.615,212.289 116.900 C 212.378 116.185,212.378 115.015,212.289 114.300 C 212.201 113.585,212.128 114.170,212.128 115.600 M212.128 124.800 C 212.128 126.230,212.201 126.815,212.289 126.100 C 212.378 125.385,212.378 124.215,212.289 123.500 C 212.201 122.785,212.128 123.370,212.128 124.800 M209.680 143.080 C 209.088 145.009,209.375 145.295,210.000 143.400 C 210.264 142.601,210.402 141.869,210.307 141.774 C 210.212 141.678,209.930 142.266,209.680 143.080 M267.233 143.721 C 267.325 143.788,267.940 144.158,268.600 144.545 L 269.800 145.247 268.856 144.424 C 268.336 143.971,267.721 143.600,267.489 143.600 C 267.257 143.600,267.142 143.654,267.233 143.721 M144.600 145.200 C 145.040 145.389,145.670 145.544,146.000 145.544 C 146.378 145.544,146.304 145.417,145.800 145.200 C 145.360 145.011,144.730 144.856,144.400 144.856 C 144.022 144.856,144.096 144.983,144.600 145.200 M158.131 163.400 C 158.133 164.940,158.205 165.521,158.292 164.691 C 158.379 163.861,158.377 162.601,158.289 161.891 C 158.200 161.181,158.129 161.860,158.131 163.400 M127.731 166.200 C 127.733 167.740,127.805 168.321,127.892 167.491 C 127.979 166.661,127.977 165.401,127.889 164.691 C 127.800 163.981,127.729 164.660,127.731 166.200 M280.931 166.200 C 280.933 167.740,281.005 168.321,281.092 167.491 C 281.179 166.661,281.177 165.401,281.089 164.691 C 281.000 163.981,280.929 164.660,280.931 166.200 M128.028 171.000 C 128.028 171.220,128.286 171.850,128.600 172.400 C 128.914 172.950,129.172 173.220,129.172 173.000 C 129.172 172.780,128.914 172.150,128.600 171.600 C 128.286 171.050,128.028 170.780,128.028 171.000 M199.494 172.103 L 198.788 173.400 199.594 172.456 C 200.280 171.652,200.646 170.794,200.300 170.803 C 200.245 170.804,199.882 171.389,199.494 172.103 M273.644 182.204 C 272.678 182.972,272.048 183.593,272.244 183.585 C 272.616 183.569,275.949 180.813,275.600 180.810 C 275.490 180.809,274.610 181.436,273.644 182.204 M264.900 185.476 C 265.285 185.576,265.915 185.576,266.300 185.476 C 266.685 185.375,266.370 185.293,265.600 185.293 C 264.830 185.293,264.515 185.375,264.900 185.476 M133.491 264.289 C 134.201 264.377,135.461 264.379,136.291 264.292 C 137.121 264.205,136.540 264.133,135.000 264.131 C 133.460 264.129,132.781 264.200,133.491 264.289 M257.900 264.289 C 258.615 264.378,259.785 264.378,260.500 264.289 C 261.215 264.201,260.630 264.128,259.200 264.128 C 257.770 264.128,257.185 264.201,257.900 264.289 M277.600 268.478 C 280.158 270.857,281.672 272.033,280.400 270.653 C 279.630 269.818,278.640 268.945,278.200 268.713 C 277.760 268.481,277.490 268.375,277.600 268.478 M110.880 275.280 C 110.616 275.544,110.425 276.219,110.454 276.780 L 110.509 277.800 110.693 276.800 C 110.794 276.250,111.061 275.575,111.287 275.300 C 111.811 274.662,111.513 274.647,110.880 275.280 M283.709 277.600 C 283.709 278.590,283.787 278.995,283.882 278.500 C 283.978 278.005,283.978 277.195,283.882 276.700 C 283.787 276.205,283.709 276.610,283.709 277.600 M110.432 278.824 C 110.414 279.166,110.680 279.796,111.022 280.224 C 111.634 280.988,111.638 280.987,111.276 280.200 C 111.074 279.760,110.808 279.130,110.686 278.800 C 110.493 278.282,110.459 278.285,110.432 278.824 M269.822 288.364 C 269.556 288.795,269.733 289.358,271.222 292.800 C 274.649 300.725,275.683 310.491,273.720 316.400 C 273.245 317.830,272.733 319.630,272.582 320.400 C 272.431 321.170,272.072 322.250,271.785 322.800 C 271.497 323.350,270.577 325.240,269.741 327.000 C 266.803 333.186,261.785 338.710,253.754 344.600 C 252.412 345.584,247.101 348.564,245.200 349.399 C 244.430 349.738,243.080 350.369,242.200 350.804 C 240.103 351.838,236.480 353.078,233.000 353.953 C 231.460 354.340,229.840 354.851,229.400 355.087 C 228.960 355.324,227.160 355.722,225.400 355.971 C 223.640 356.221,220.940 356.734,219.400 357.113 C 215.804 357.995,189.942 358.146,187.634 357.298 C 186.883 357.022,184.453 356.509,182.234 356.158 C 180.015 355.807,177.585 355.264,176.834 354.952 C 176.082 354.641,174.462 354.128,173.234 353.814 C 169.308 352.810,165.522 351.287,160.800 348.812 C 158.270 347.486,155.435 346.033,154.500 345.582 C 153.565 345.131,152.800 344.620,152.800 344.445 C 152.800 344.271,152.324 343.911,151.741 343.646 C 148.737 342.277,140.861 335.237,137.368 330.800 C 135.586 328.535,131.613 322.333,131.603 321.800 C 131.598 321.580,131.314 320.860,130.969 320.200 C 128.076 314.651,126.841 302.544,128.651 297.477 C 128.980 296.555,129.355 294.585,129.483 293.100 L 129.716 290.400 128.668 290.400 C 127.709 290.400,127.653 290.487,128.009 291.422 C 128.292 292.167,128.239 292.750,127.816 293.569 C 125.946 297.184,125.904 313.304,127.757 316.200 C 128.038 316.640,128.492 317.900,128.764 319.000 C 129.037 320.100,129.491 321.270,129.773 321.600 C 130.056 321.930,130.467 322.740,130.688 323.400 C 131.172 324.849,133.618 328.638,136.239 332.000 C 137.079 333.077,144.261 340.182,145.243 340.907 C 145.769 341.295,146.982 342.240,147.938 343.007 C 148.894 343.773,149.826 344.400,150.009 344.400 C 150.193 344.400,150.645 344.703,151.015 345.072 C 151.957 346.015,155.934 348.368,157.061 348.651 C 157.578 348.781,158.000 349.056,158.000 349.264 C 158.000 349.471,158.675 349.911,159.500 350.241 C 160.325 350.571,161.834 351.282,162.854 351.820 C 163.874 352.359,165.023 352.800,165.407 352.800 C 165.791 352.800,166.667 353.141,167.353 353.557 C 168.039 353.973,169.230 354.444,170.000 354.602 C 170.770 354.761,172.184 355.243,173.142 355.674 C 174.099 356.105,175.989 356.630,177.342 356.840 C 178.694 357.051,180.444 357.474,181.232 357.781 C 182.019 358.088,185.259 358.539,188.432 358.783 C 191.604 359.026,196.225 359.413,198.700 359.642 C 201.813 359.929,204.587 359.929,207.700 359.642 C 210.175 359.413,214.810 359.026,218.000 358.782 C 221.190 358.538,224.340 358.093,225.000 357.795 C 225.660 357.496,227.480 357.063,229.046 356.831 C 230.611 356.599,232.681 356.051,233.646 355.614 C 234.610 355.176,235.774 354.814,236.232 354.809 C 236.690 354.804,237.950 354.351,239.032 353.802 C 240.114 353.253,241.250 352.803,241.555 352.802 C 242.158 352.800,247.457 350.235,250.472 348.486 C 251.502 347.889,252.942 347.060,253.672 346.644 C 255.789 345.438,259.020 342.750,262.620 339.200 C 266.361 335.511,269.600 331.507,269.600 330.573 C 269.600 330.326,269.950 329.807,270.377 329.421 C 270.805 329.034,271.267 328.204,271.405 327.577 C 271.543 326.950,271.979 326.024,272.376 325.519 C 272.772 325.013,273.229 323.970,273.391 323.200 C 273.554 322.430,274.023 320.990,274.433 320.000 C 276.475 315.071,276.472 301.771,274.427 296.800 C 274.020 295.810,273.555 294.377,273.393 293.616 C 273.232 292.854,272.738 291.743,272.297 291.147 C 271.787 290.456,271.567 289.686,271.692 289.031 C 271.893 287.981,270.390 287.445,269.822 288.364 M164.500 308.413 C 164.004 308.612,163.329 308.671,163.000 308.544 C 162.208 308.241,162.192 310.211,162.976 311.600 C 163.286 312.150,163.888 313.331,164.314 314.225 C 166.227 318.239,174.450 324.390,179.163 325.333 C 179.843 325.469,181.165 325.928,182.100 326.354 C 183.035 326.780,184.970 327.337,186.400 327.592 C 187.830 327.846,189.810 328.344,190.800 328.697 C 193.528 329.672,208.448 329.666,211.800 328.690 C 213.120 328.305,215.370 327.741,216.800 327.436 C 219.049 326.956,221.600 326.074,224.600 324.739 C 225.685 324.257,228.878 322.379,230.267 321.408 C 232.395 319.919,236.623 315.414,237.620 313.575 C 238.636 311.698,238.805 307.974,237.800 309.600 C 237.664 309.820,236.798 310.021,235.876 310.047 C 234.364 310.090,234.317 310.120,235.395 310.350 C 236.971 310.688,237.117 311.708,235.833 313.392 C 235.265 314.137,234.800 314.868,234.800 315.016 C 234.800 315.538,230.182 319.661,228.773 320.397 C 227.989 320.806,227.121 321.413,226.846 321.745 C 226.570 322.077,225.826 322.463,225.191 322.602 C 224.557 322.741,223.624 323.177,223.119 323.569 C 222.613 323.962,221.210 324.514,220.000 324.795 C 218.790 325.077,217.343 325.538,216.784 325.820 C 216.226 326.103,212.415 326.727,208.316 327.208 L 200.863 328.082 194.131 327.221 C 190.429 326.747,186.770 326.102,186.000 325.786 C 185.230 325.470,183.700 325.019,182.600 324.784 C 180.795 324.398,177.148 322.924,175.600 321.956 C 175.270 321.749,174.242 321.219,173.316 320.778 C 171.837 320.074,168.368 316.943,166.297 314.443 C 165.911 313.976,165.236 312.651,164.798 311.498 L 164.002 309.402 164.901 308.710 C 165.902 307.939,165.823 307.881,164.500 308.413 " stroke="none" fill="#ecd488" fill-rule="evenodd"></path></g></svg>